<?xml version="1.0" standalone="no"?>
<!DOCTYPE svg PUBLIC "-//W3C//DTD SVG 20010904//EN"
 "http://www.w3.org/TR/2001/REC-SVG-20010904/DTD/svg10.dtd">
<svg version="1.0" xmlns="http://www.w3.org/2000/svg"
 width="600.000000pt" height="600.000000pt" viewBox="0 0 600.000000 600.000000"
 preserveAspectRatio="xMidYMid meet">
<metadata>
Created by potrace 1.14, written by Peter Selinger 2001-2017
</metadata>
<g transform="translate(0.000000,600.000000) scale(0.100000,-0.100000)"
fill="#000000" stroke="none">
<path d="M2018 4584 c-2 -1 -62 -5 -133 -9 -196 -9 -313 -15 -369 -20 -28 -2
-87 -7 -131 -10 -103 -7 -199 -15 -250 -20 -22 -2 -67 -7 -100 -10 -33 -3 -76
-8 -95 -10 -77 -10 -118 -14 -175 -20 -33 -3 -73 -8 -90 -11 -16 -3 -46 -7
-65 -9 -121 -12 -157 -17 -170 -20 -8 -2 -35 -7 -60 -10 -39 -5 -216 -32 -260
-40 -8 -1 -39 -6 -68 -10 -48 -7 -52 -10 -52 -34 0 -46 325 -513 575 -826 153
-191 230 -281 394 -460 172 -185 476 -473 641 -605 30 -24 60 -49 65 -55 49
-53 516 -375 660 -455 248 -137 350 -188 523 -260 53 -23 106 -45 117 -50 78
-34 418 -139 510 -156 11 -2 31 -6 45 -9 48 -11 185 -36 225 -41 22 -3 51 -7
65 -10 51 -10 249 -19 405 -18 200 0 292 10 490 49 105 21 302 78 360 104 273
124 415 214 559 358 59 59 153 175 193 238 59 93 129 274 154 395 14 69 18
307 7 375 -40 232 -109 405 -241 603 -75 112 -247 295 -355 375 -259 194 -593
352 -972 459 -151 42 -355 89 -455 103 -22 4 -48 8 -57 11 -33 10 -273 45
-403 58 -178 19 -191 21 -345 31 -47 4 -110 9 -140 11 -61 6 -997 13 -1002 8z"/>
</g>
</svg>
